<svg xmlns="http://www.w3.org/2000/svg" viewBox="0 0 180.5 75"><defs><clipPath id="a"><path d="M313.8 662.5h172.4v-268H313.8z"/></clipPath></defs><g transform="translate(-18.4 -97.9)"><path fill="#cddbf5" d="M18.4 97.9h181.1v75H18.4z"/><path fill="#fff" fill-rule="evenodd" stroke="#fcfcfc" stroke-width="2.602908" d="M106.5 101.3c-1.7.2-2.4 4.6-3.6 8.6l-1.3 2.8c-.8-.7-1.9-.3-2.2.7-.4 1-.3 2-.1 3v.5l-2.2 4.4c-1.8 1.8-3.7 3.9-7.3 6.4v-1.4l-.3-.3v-.4c-.5-3.5-5-2-4.9 1a9 9 0 0 0 .5 4L83 132c-13.3 7-19 4.3-19 4.3s3 5.5 5.8 6.8c2.8 1.3 11.9-.8 16.5 2.4 4.7 3 2.7 5.6 8 7.4 3.4 1 16.5-2.2 14.3 6.6 0 0 3-2.5 6.4-6.2l.6.9c.8 1 2.6 2.3 3.5.7.7-1.3.5-2.7.2-4a13 13 0 0 0 1.8-1.1c.8-.3 1.2-1 1.7-1.5l.5-.7c3-3.2 4.2-7.4 4.4-11.6l.3-3.7c.3-4 0-6.8-.3-9.4.6-.9 1-2 .5-3-.2-.4-.5-.6-.9-.7-.1-1.5-.2-3.1 0-5 .5-2.8 1.6-7.5.8-8.2-.7-.5-3.7 1.6-7.6 4-3-1.4-6.1-2.3-9.3-2.8-1.9-1.3-3.4-5.7-4.6-5.8z"/><g transform="matrix(1.18314 0 0 1.18314 -643.5 400.7)"><path fill="#ec1c47" fill-rule="evenodd" d="M647-240.4c1.2 1 3 8.5 1.5 17.8-1.5 9.4-13 18.7-13 18.7 2-7.4-9.1-4.7-12-5.6-4.5-1.5-2.8-3.6-6.7-6.3-4-2.6-11.6-.9-14-2-2.3-1-4.9-5.7-4.9-5.7s4.9 2.3 16-3.7c11.3-5.9 10.8-9.2 16.6-12.4 4.2-2.3 12.4-4.6 16.6-.8"/><path fill="#da2147" fill-rule="evenodd" d="M627.4-236.8s-2 1.7-7.6 7.4c-5.6 5.6-17.5 8.2-16.6 8.3 8.3-1 16 2.4 24.2 2.4 0 0-7.8-.2-5.6-3 2.2-2.7 4.5-6.2 3.6-5.8-1 .4-4.1 1.4-2.9-.2 1.3-1.6 7-8 7.5-9 .6-1-2.6-.1-2.6-.1M638.5-232.8c-3.3 6.5-6.2 12-8.6 15.2-2.5 3-3.1 4.2-2 3.6 1.1-.7 4-3 4.7-1.9.6 1-.8 3 .7 2.3 1.4-.8 6.5-12.3 7.6-16.2 1-3.8-2.4-3-2.4-3"/><path fill="#da2147" d="M635-219.3s-2.5 8.1-6.4 8c-3.8 0-5.7 0-7-2.8-1.5-2.8 4.7-6.4 7.5-7.6 2.8-1.2 5.9 2.4 5.9 2.4z"/><path fill="#dbf6ff" d="M638.4-220.4c-4.7-2.6-10.2-1-15.2-1.6-4.4-.8-8.3-5-7.8-9.6 0-2.5 3.7-3.8 4.1-.9.2 2.8 1.2 6 4 7.2 3 1.8 6.8 1.4 10.1 1.7 2 .3 3.8 1.4 4.8 3.2z"/><path fill="#b0dae7" d="M621.8-223.5c-2-1.1-3-3-4.1-4.9-.4-.5-1.4-.4-1.3.4.1 1.5 1 2.7 2.2 3.6.8.7 1.8 1.6 3 1.5.2 0 .3-.2.2-.4"/><path fill="none" stroke="#005571" stroke-width=".5" d="M638.4-220.4c-4.7-2.6-10.2-1-15.2-1.6-4.4-.8-8.3-5-7.8-9.6 0-2.5 3.7-3.8 4.1-.9.2 2.8 1.2 6 4 7.2 3 1.8 6.8 1.4 10.1 1.7 2 .3 3.8 1.4 4.8 3.2z"/><path fill="#dbf6ff" stroke="#00536f" stroke-width=".5" d="M633.8-253c-1.3.1-1.9 4-3 7.3-2.4 6-14.7 23.8-6.7 30.5 7.7 6.4 27.1 11.5 27.9-11.7.5-7-1-10-.6-15.2.5-2.5 1.3-6.4.7-7-.6-.4-3.2 1.4-6.4 3.3a34.2 34.2 0 0 0-7.9-2.3c-1.6-1.2-3-5-4-5z"/><circle cx="636.7" cy="-243.9" r=".6" fill="#080808"/><circle cx="645.1" cy="-241.6" r=".6" fill="#2d2d2d"/><path stroke="#000" stroke-width=".3" d="M640.1-240.7c-.4-.3-.7-.8-.6-1.3.3-.7 1.3-.8 1.8-.2.2.2.2.6.1 1 0 .5-.6 1-1.1.7l-.2-.2z"/><path fill="none" stroke="#000" stroke-linecap="round" stroke-width=".3" d="M632-244.3l-2.9-1.5M631.6-243.4l-3-.3M631.4-242.1l-3.6.9"/><g fill="none" stroke="#000" stroke-linecap="round" stroke-linejoin="round" stroke-width=".3"><path d="M649.7-240.6l3.5-.3M649.8-239.4l3.7.2M649.8-238.3l3.1 1.1"/></g><path fill="#ffb297" fill-opacity=".7" d="M636.2-247.8c-1.3-1-1.6-2.2-2.3-2.8-.9.5-1.2 2-1.5 3.3z"/><path fill="#fff" fill-opacity=".9" d="M637.1-235.5c-2 0-3.9.8-5 2.7-2.4 3.2-3.4 7.5-7 9.7-1 .7-2 3-2.3 5.8.3.6.8 1 1.3 1.5 3.7 3.1 10 5.9 15.8 5.4 6.3-7.9 6.6-19.1 2.6-22.6a7.4 7.4 0 0 0-5.4-2.5z"/><path fill="#dbf6ff" stroke="#005571" stroke-linecap="round" stroke-width=".5" d="M623.1-217.4c-1.3.8-3.2 1-3.8-.2-.6-1.3.9-3.2 2.4-3.7l.3-.1"/><path d="M639.8-239.8c-.8-.9-3-1.3-2.7.5 0 1.6 2 2.1 3.3 2 1.8 0 3-2.2 1-2.4-.5-.1-1 .1-1.6-.1z"/><path fill="#ffb297" d="M640.6-237.6l-.8-.6c-.2-.2-.5-.4-.9-.4h-1.4c.4.5.9.8 1.4 1h1.7z"/><g fill="#ff7878"><path d="M631.6-238.7c3.6 2.6 7.7 4.7 14.9 3.1l1.3-.6c-13.4 1.4-13.2-2.2-16.3-3.2z"/><path d="M639-235.7c0 .7 1 1.9 0 2.2-.9 0-1-1-1-1.7s-.4.4-.6.5c-.3.6-1.2 1-1.3 0-.1-.5.4-1.1.9-1.3"/></g><g fill="#006383"><path d="M619.2-232.1c-.2.9-1.1 1.3-1.9 1.5-.7 0-1 1.2-.1 1.3.7.2 1.6 0 2.1-.6.6-.5.6-1.3.4-2 0-.2-.3-.4-.5-.2zM620-229.4c-.2.7-1 1-1.7 1.3-.5 0-.8 1-.1 1a2 2 0 0 0 1.8-.5c.6-.3.5-1 .4-1.6 0-.2-.3-.3-.5-.2zM621-227.3c-.1.6-.8 1-1.4 1.1-.5 0-.6.9 0 1 .5 0 1-.1 1.5-.5.4-.3.4-1 .3-1.4 0-.2-.3-.3-.4-.2z"/></g><path fill="#dbf6ff" stroke="#005571" stroke-linecap="round" stroke-linejoin="round" stroke-width=".5" d="M631.7-238.8c-.4-1.5-.7-3-1.6-4.2-.6-1-1.9-.8-2.2.2-.3.8-.2 1.7 0 2.5 0 .8.1 1.5.5 2.2l.1.2"/><path fill="#dbf6ff" stroke="#005571" stroke-linecap="round" stroke-width=".5" d="M646.6-235.4c1.4-.8 2.5-2.2 4.2-2.5.5-.2 1.1 0 1.3.5.5 1 .1 2-.4 2.7-.6 1-1.6 1.6-2.7 1.6"/><path fill="#006687" d="M650.2-233.3c0 6.1.5 15.4-4.5 19.5-1 .4-.7 2.1.5 1.6.9-.3 1.2-1.2 1.9-1.8 2.7-3 3.7-7 3.7-11 .1-3.2.5-6.4-.3-9.5-.4.1-1 1-1.3 1.2z" opacity=".2"/><path fill="#dbf6ff" stroke="#005571" stroke-linecap="round" stroke-width=".5" d="M644.3-212.4c.3 1.5 1 3.1.2 4.6-.8 1.4-2.3.3-3-.6-.6-.7-.9-1.7-1.1-2.6"/><path fill="#b0dae7" d="M644.1-211.8c-.9-.6-1 1-.7 1.5.4.9-.2 1.7-.2 2.5.6.9 1.2-.3 1.3-.9.3-1 0-2-.4-3v-.1z"/><path fill="#f5c4b4" d="M647.2-244.8l3.1-1.7c0 .9 0 1.6-.8 3.1z"/><g stroke="#000" stroke-width=".3" opacity=".3"><path d="M611.8-195.2l13.7-13 .6.4zM609.2-196.8l10.2-9.6-.2-.2zM607.3-199.7l11.6-10.3-.3-.4z"/></g><path fill="none" stroke="#000" stroke-width=".3" d="M640.3-240.8l-.5 1.4"/></g><circle cx="41.2" cy="166.8" r="19.4" fill="#fff"/><circle cx="20.4" cy="161.8" r="15" fill="#fff"/><circle cx="27.6" cy="148.3" r="12.5" fill="#fff"/><circle cx="193.1" cy="120.4" r="15" fill="#fff"/><circle cx="171.2" cy="115.1" r="15" fill="#fff"/><circle cx="178.1" cy="124.8" r="15" fill="#fff"/><circle cx="154" cy="121" r="15" fill="#fff"/></g></svg>